<svg xmlns="http://www.w3.org/2000/svg" viewBox="0 0 256 256" width="256" height="256">
  <defs>
    <filter id="glow">
      <feGaussianBlur stdDeviation="3" result="coloredBlur"/>
      <feMerge>
        <feMergeNode in="coloredBlur"/>
        <feMergeNode in="SourceGraphic"/>
      </feMerge>
    </filter>
    <filter id="outerGlow">
      <feGaussianBlur stdDeviation="5" result="coloredBlur"/>
      <feMerge>
        <feMergeNode in="coloredBlur"/>
        <feMergeNode in="SourceGraphic"/>
      </feMerge>
    </filter>
  </defs>
  
  <!-- Background -->
  <rect width="256" height="256" fill="#000000"/>
  
  <!-- CRT Screen effect -->
  <rect x="20" y="20" width="216" height="216" fill="#001a00" rx="10"/>
  
  <!-- Outer border glow -->
  <rect x="20" y="20" width="216" height="216" fill="none" stroke="#00ff00" stroke-width="3" rx="10" filter="url(#outerGlow)" opacity="0.6"/>
  
  <!-- Game elements container -->
  <g transform="translate(128, 128)">
    <!-- Left paddle (player) -->
    <rect x="-85" y="-25" width="8" height="50" fill="#00ff00" filter="url(#glow)"/>
    
    <!-- Right paddle -->
    <rect x="77" y="-15" width="8" height="30" fill="#00ff00" filter="url(#glow)" opacity="0.7"/>
    
    <!-- Ball -->
    <circle cx="0" cy="0" r="8" fill="#ff7043" filter="url(#glow)"/>
    
    <!-- Ball trail effect -->
    <circle cx="-15" cy="5" r="6" fill="#ff7043" opacity="0.3"/>
    <circle cx="-25" cy="8" r="4" fill="#ff7043" opacity="0.15"/>
    
    <!-- Center dashed line -->
    <line x1="0" y1="-70" x2="0" y2="-50" stroke="#00ff00" stroke-width="2" opacity="0.3"/>
    <line x1="0" y1="-40" x2="0" y2="-20" stroke="#00ff00" stroke-width="2" opacity="0.3"/>
    <line x1="0" y1="-10" x2="0" y2="10" stroke="#00ff00" stroke-width="2" opacity="0.3"/>
    <line x1="0" y1="20" x2="0" y2="40" stroke="#00ff00" stroke-width="2" opacity="0.3"/>
    <line x1="0" y1="50" x2="0" y2="70" stroke="#00ff00" stroke-width="2" opacity="0.3"/>
  </g>
  
  <!-- Corner scan lines for CRT effect -->
  <line x1="30" y1="40" x2="226" y2="40" stroke="#00ff00" stroke-width="0.5" opacity="0.15"/>
  <line x1="30" y1="80" x2="226" y2="80" stroke="#00ff00" stroke-width="0.5" opacity="0.15"/>
  <line x1="30" y1="120" x2="226" y2="120" stroke="#00ff00" stroke-width="0.5" opacity="0.15"/>
  <line x1="30" y1="160" x2="226" y2="160" stroke="#00ff00" stroke-width="0.5" opacity="0.15"/>
  <line x1="30" y1="200" x2="226" y2="200" stroke="#00ff00" stroke-width="0.5" opacity="0.15"/>
  
  <!-- Border -->
  <rect x="20" y="20" width="216" height="216" fill="none" stroke="#00ff00" stroke-width="2" rx="10"/>
</svg>